<svg width="33" height="41" viewBox="0 0 33 41" fill="none" xmlns="http://www.w3.org/2000/svg">
<path fill-rule="evenodd" clip-rule="evenodd" d="M16.8566 38.7447L16.8602 38.742L16.8695 38.7354L16.9019 38.7121C16.9297 38.6919 16.9698 38.6628 17.0212 38.6249C17.1239 38.5488 17.2722 38.4375 17.4596 38.2926C17.8343 38.0025 18.3657 37.5774 19.0017 37.0301C20.2723 35.9366 21.9673 34.3493 23.665 32.3725C27.036 28.4475 30.5382 22.8457 30.5382 16.4414C30.5382 12.6133 29.0362 8.94069 26.361 6.23192C23.6854 3.52298 20.0554 2 16.2691 2C12.4828 2 8.85272 3.52298 6.17717 6.23192C3.50192 8.94069 2 12.6133 2 16.4414C2 22.8457 5.50214 28.4475 8.87311 32.3725C10.5708 34.3493 12.2659 35.9366 13.5364 37.0301C14.1724 37.5774 14.7039 38.0025 15.0785 38.2926C15.266 38.4375 15.4143 38.5488 15.517 38.6249C15.5684 38.6628 15.6084 38.6919 15.6362 38.7121L15.6687 38.7354L15.6779 38.742L15.6816 38.7447C16.0335 38.9941 16.5046 38.9941 16.8566 38.7447ZM21.3652 16.3625C21.3652 19.1954 19.0835 21.492 16.2691 21.492C13.4546 21.492 11.173 19.1954 11.173 16.3625C11.173 13.5296 13.4546 11.2331 16.2691 11.2331C19.0835 11.2331 21.3652 13.5296 21.3652 16.3625Z" stroke="#1F623C" stroke-width="3"/>
</svg>
