<svg width="24" height="39" viewBox="0 0 24 39" fill="none" xmlns="http://www.w3.org/2000/svg">
<path d="M2.39591 2.39591L3.45657 3.45657L2.39591 2.39591C1.91278 2.87904 1.64136 3.53431 1.64136 4.21756V33.8278C1.64136 34.511 1.91278 35.1663 2.39591 35.6494L3.45657 34.5888L2.39591 35.6494C2.87905 36.1326 3.53432 36.404 4.21756 36.404H19.2844C19.9677 36.404 20.623 36.1326 21.1061 35.6494C21.5892 35.1663 21.8607 34.511 21.8607 33.8278V4.21756C21.8607 3.53431 21.5892 2.87904 21.1061 2.39591C20.623 1.91278 19.9677 1.64136 19.2844 1.64136H4.21756C3.53431 1.64136 2.87904 1.91278 2.39591 2.39591ZM4.21756 1.5H19.2844C20.0052 1.5 20.6964 1.78631 21.2061 2.29595C21.7157 2.8056 22.002 3.49682 22.002 4.21756V33.8278C22.002 34.5485 21.7157 35.2397 21.2061 35.7494C20.6964 36.259 20.0052 36.5453 19.2844 36.5453H4.21756C3.49682 36.5453 2.8056 36.259 2.29596 35.7494C1.78631 35.2397 1.5 34.5485 1.5 33.8278V4.21756C1.5 3.49682 1.78631 2.8056 2.29596 2.29596C2.8056 1.78631 3.49682 1.5 4.21756 1.5Z" stroke="white" stroke-width="3"/>
<path d="M10.2963 32.041H13.2049C13.2237 32.041 13.2417 32.0485 13.2549 32.0617C13.2682 32.075 13.2756 32.0929 13.2756 32.1117C13.2756 32.1304 13.2682 32.1484 13.2549 32.1617C13.2417 32.1749 13.2237 32.1824 13.2049 32.1824H10.2963C10.2775 32.1824 10.2595 32.1749 10.2463 32.1617C10.233 32.1484 10.2256 32.1304 10.2256 32.1117C10.2256 32.0929 10.233 32.075 10.2463 32.0617C10.2595 32.0485 10.2775 32.041 10.2963 32.041Z" stroke="white" stroke-width="3"/>
</svg>
