<svg width="24" height="39" viewBox="0 0 24 39" fill="none" xmlns="http://www.w3.org/2000/svg">
<path d="M19.2844 0H4.21756C3.099 0 2.02624 0.444349 1.2353 1.2353C0.444349 2.02624 0 3.099 0 4.21756V33.8278C0 34.9463 0.444349 36.0191 1.2353 36.81C2.02624 37.601 3.099 38.0453 4.21756 38.0453H19.2844C20.403 38.0453 21.4758 37.601 22.2667 36.81C23.0577 36.0191 23.502 34.9463 23.502 33.8278V4.21756C23.502 3.099 23.0577 2.02624 22.2667 1.2353C21.4758 0.444349 20.403 0 19.2844 0ZM20.3607 33.8278C20.3607 34.1132 20.2473 34.3869 20.0454 34.5888C19.8436 34.7906 19.5699 34.904 19.2844 34.904H4.21756C3.93214 34.904 3.6584 34.7906 3.45657 34.5888C3.25474 34.3869 3.14136 34.1132 3.14136 33.8278V4.21756C3.14136 3.93214 3.25474 3.6584 3.45657 3.45657C3.6584 3.25474 3.93214 3.14136 4.21756 3.14136H19.2844C19.5699 3.14136 19.8436 3.25474 20.0454 3.45657C20.2473 3.6584 20.3607 3.93214 20.3607 4.21756V33.8278Z" fill="#1F623C"/>
<path d="M13.2049 30.541H10.2963C9.87969 30.541 9.48019 30.7065 9.18563 31.0011C8.89107 31.2956 8.72559 31.6951 8.72559 32.1117C8.72559 32.5283 8.89107 32.9278 9.18563 33.2223C9.48019 33.5169 9.87969 33.6824 10.2963 33.6824H13.2049C13.6215 33.6824 14.021 33.5169 14.3156 33.2223C14.6101 32.9278 14.7756 32.5283 14.7756 32.1117C14.7756 31.6951 14.6101 31.2956 14.3156 31.0011C14.021 30.7065 13.6215 30.541 13.2049 30.541Z" fill="#1F623C"/>
</svg>
