<svg width="29" height="24" viewBox="0 0 29 24" fill="none" xmlns="http://www.w3.org/2000/svg">
<path d="M22.5625 23.75H5.9375C4.36278 23.75 2.85255 23.1244 1.73905 22.0109C0.625556 20.8974 0 19.3872 0 17.8125L0 5.9375C0 4.36278 0.625556 2.85255 1.73905 1.73905C2.85255 0.625556 4.36278 0 5.9375 0H22.5625C23.3422 0 24.1143 0.153578 24.8347 0.451965C25.5551 0.750352 26.2096 1.18771 26.7609 1.73905C27.3123 2.2904 27.7496 2.94495 28.048 3.66532C28.3464 4.38569 28.5 5.15778 28.5 5.9375V17.8125C28.5 18.5922 28.3464 19.3643 28.048 20.0847C27.7496 20.805 27.3123 21.4596 26.7609 22.0109C26.2096 22.5623 25.5551 22.9996 24.8347 23.298C24.1143 23.5964 23.3422 23.75 22.5625 23.75ZM5.9375 2.375C4.99267 2.375 4.08653 2.75033 3.41843 3.41843C2.75033 4.08653 2.375 4.99267 2.375 5.9375V17.8125C2.375 18.7573 2.75033 19.6635 3.41843 20.3316C4.08653 20.9997 4.99267 21.375 5.9375 21.375H22.5625C23.5073 21.375 24.4135 20.9997 25.0816 20.3316C25.7497 19.6635 26.125 18.7573 26.125 17.8125V5.9375C26.125 4.99267 25.7497 4.08653 25.0816 3.41843C24.4135 2.75033 23.5073 2.375 22.5625 2.375H5.9375Z" fill="#1F623C"/>
<path d="M14.2495 13.395C13.457 13.3949 12.6727 13.2362 11.9425 12.9283C11.2124 12.6203 10.5513 12.1693 9.99821 11.6019L1.86383 3.28939C1.6418 3.0642 1.51831 2.76003 1.52054 2.4438C1.52276 2.12757 1.65052 1.82517 1.87571 1.60314C2.10089 1.3811 2.40506 1.25761 2.72129 1.25984C3.03753 1.26207 3.33992 1.38983 3.56196 1.61501L11.6845 9.92751C12.366 10.5962 13.2828 10.9708 14.2376 10.9708C15.1924 10.9708 16.1091 10.5962 16.7907 9.92751L24.9132 1.61501C25.0224 1.50273 25.1526 1.41305 25.2964 1.35109C25.4402 1.28913 25.5948 1.25611 25.7514 1.2539C25.908 1.2517 26.0635 1.28035 26.209 1.33824C26.3545 1.39612 26.4872 1.4821 26.5995 1.59126C26.7117 1.70042 26.8014 1.83063 26.8634 1.97445C26.9253 2.11827 26.9584 2.27288 26.9606 2.42947C26.9628 2.58605 26.9341 2.74153 26.8762 2.88704C26.8183 3.03255 26.7324 3.16523 26.6232 3.27751L18.4888 11.59C17.9381 12.1582 17.2794 12.6105 16.5514 12.9205C15.8233 13.2305 15.0407 13.3918 14.2495 13.395Z" fill="#1F623C"/>
</svg>
