<svg width="31" height="30" viewBox="0 0 31 30" fill="none" xmlns="http://www.w3.org/2000/svg">
<path d="M8.65278 21.6625H2.425C1.63799 21.6625 1 21.0245 1 20.2375V9.90625C1 9.11926 1.63799 8.48125 2.425 8.48125H28.075C28.862 8.48125 29.5 9.11926 29.5 9.90625V20.2375C29.5 21.0245 28.862 21.6625 28.075 21.6625H21.8472M8.125 2.06875C8.125 1.47848 8.60348 1 9.19375 1H21.3062C21.8965 1 22.375 1.47848 22.375 2.06875V8.48125H8.125V2.06875Z" stroke="white" stroke-width="2"/>
<path d="M5.63086 16.3188H24.8684M5.63086 12.7563H10.6184" stroke="white" stroke-width="2" stroke-linecap="round"/>
<path d="M25.9373 12.7563C25.9373 13.3465 25.4588 13.825 24.8686 13.825C24.2783 13.825 23.7998 13.3465 23.7998 12.7563C23.7998 12.166 24.2783 11.6875 24.8686 11.6875C25.4588 11.6875 25.9373 12.166 25.9373 12.7563Z" fill="white"/>
<path d="M21.3949 17.0312L22.586 26.8779C22.663 27.5144 22.1661 28.075 21.525 28.075H8.97417C8.33303 28.075 7.83617 27.5144 7.91315 26.8779L9.10428 17.0312" stroke="white" stroke-width="2"/>
<path d="M12.0434 19.5249H18.4559M11.6871 22.3749H18.8121M10.9746 24.8687H19.5246" stroke="white" stroke-width="2" stroke-linecap="round"/>
</svg>
