<svg width="54" height="54" viewBox="0 0 54 54" fill="none" xmlns="http://www.w3.org/2000/svg">
<path d="M27 43.0468L13.1351 35.027L27 27L40.1351 35.027L27 43.0468Z" fill="#FFBC00"/>
<path d="M13.1351 18.9728L27 10.9385L40.1351 18.9728H13.1351Z" fill="#1F623C"/>
<path d="M13.1351 26.9997H27V18.9727L13.1351 26.9997Z" fill="#FFBC00"/>
<path d="M27 26.9997H40.1351L27 18.9727V26.9997Z" fill="#1F623C"/>
<path d="M44.5135 27C44.5135 31.6449 42.6683 36.0995 39.3839 39.3839C36.0995 42.6683 31.6449 44.5135 27 44.5135V54C34.1608 54 41.0284 51.1554 46.0919 46.0919C51.1554 41.0284 54 34.1608 54 27H44.5135Z" fill="#FFBC00"/>
<path d="M27 0C19.8392 0 12.9716 2.84463 7.90812 7.90812C2.84463 12.9716 0 19.8392 0 27H9.48649C9.48649 22.3551 11.3317 17.9005 14.6161 14.6161C17.9005 11.3317 22.3551 9.48649 27 9.48649V0Z" fill="#1F623C"/>
</svg>
