<svg width="347" height="77" viewBox="0 0 347 77" fill="none" xmlns="http://www.w3.org/2000/svg">
<path d="M37 61.99L18 51L37 40L55 51L37 61.99Z" fill="#FFBC00"/>
<path d="M18 29L37 17.99L55 29H18Z" fill="#1F623C"/>
<path d="M18 40H37V29L18 40Z" fill="#FFBC00"/>
<path d="M37 40H55L37 29V40Z" fill="#1F623C"/>
<path d="M61 40C61 46.3652 58.4714 52.4697 53.9706 56.9706C49.4697 61.4714 43.3652 64 37 64V77C46.813 77 56.2241 73.1018 63.163 66.163C70.1018 59.2241 74 49.813 74 40H61Z" fill="#FFBC00"/>
<path d="M37 3C27.187 3 17.7759 6.8982 10.837 13.837C3.8982 20.7759 0 30.187 0 40H13C13 33.6348 15.5286 27.5303 20.0294 23.0294C24.5303 18.5286 30.6348 16 37 16V3Z" fill="#1F623C"/>
<path d="M71.575 3.32C72.625 3.32 73.57 3.555 74.41 4.025C75.26 4.495 75.925 5.145 76.405 5.975C76.885 6.795 77.125 7.72 77.125 8.75C77.125 9.78 76.885 10.71 76.405 11.54C75.925 12.36 75.26 13.005 74.41 13.475C73.57 13.945 72.625 14.18 71.575 14.18C70.635 14.18 69.775 13.995 68.995 13.625C68.215 13.245 67.57 12.72 67.06 12.05C66.56 11.37 66.24 10.595 66.1 9.725H64.72V14H62.305V3.5H64.72V7.625H66.13C66.29 6.785 66.62 6.04 67.12 5.39C67.63 4.73 68.27 4.22 69.04 3.86C69.81 3.5 70.655 3.32 71.575 3.32ZM71.575 12.11C72.155 12.11 72.68 11.97 73.15 11.69C73.62 11.41 73.99 11.015 74.26 10.505C74.53 9.995 74.665 9.41 74.665 8.75C74.665 8.09 74.53 7.505 74.26 6.995C73.99 6.485 73.62 6.09 73.15 5.81C72.68 5.53 72.155 5.39 71.575 5.39C70.995 5.39 70.47 5.53 70 5.81C69.53 6.09 69.16 6.485 68.89 6.995C68.62 7.505 68.485 8.09 68.485 8.75C68.485 9.41 68.62 9.995 68.89 10.505C69.16 11.015 69.53 11.41 70 11.69C70.47 11.97 70.995 12.11 71.575 12.11ZM86.4139 5.48H81.4189L81.4339 14H79.0189V3.5H86.4289L86.4139 5.48ZM91.8511 14.18C90.7611 14.18 89.7761 13.945 88.8961 13.475C88.0261 13.005 87.3411 12.36 86.8411 11.54C86.3511 10.71 86.1061 9.78 86.1061 8.75C86.1061 7.72 86.3511 6.795 86.8411 5.975C87.3411 5.145 88.0261 4.495 88.8961 4.025C89.7761 3.555 90.7611 3.32 91.8511 3.32C92.9411 3.32 93.9211 3.555 94.7911 4.025C95.6611 4.495 96.3461 5.145 96.8461 5.975C97.3461 6.795 97.5961 7.72 97.5961 8.75C97.5961 9.78 97.3461 10.71 96.8461 11.54C96.3461 12.36 95.6611 13.005 94.7911 13.475C93.9211 13.945 92.9411 14.18 91.8511 14.18ZM91.8511 12.11C92.4711 12.11 93.0311 11.97 93.5311 11.69C94.0311 11.4 94.4211 11 94.7011 10.49C94.9911 9.98 95.1361 9.4 95.1361 8.75C95.1361 8.1 94.9911 7.52 94.7011 7.01C94.4211 6.5 94.0311 6.105 93.5311 5.825C93.0311 5.535 92.4711 5.39 91.8511 5.39C91.2311 5.39 90.6711 5.535 90.1711 5.825C89.6711 6.105 89.2761 6.5 88.9861 7.01C88.7061 7.52 88.5661 8.1 88.5661 8.75C88.5661 9.4 88.7061 9.98 88.9861 10.49C89.2761 11 89.6711 11.4 90.1711 11.69C90.6711 11.97 91.2311 12.11 91.8511 12.11ZM103.833 3.395C105.303 3.395 106.448 3.755 107.268 4.475C108.098 5.195 108.513 6.205 108.513 7.505C108.513 8.735 108.138 9.7 107.388 10.4C106.648 11.1 105.608 11.45 104.268 11.45C103.828 11.45 103.398 11.405 102.978 11.315C102.568 11.225 102.123 11.075 101.643 10.865V14H99.2431V7.79C99.2431 6.38 99.6331 5.295 100.413 4.535C101.203 3.775 102.343 3.395 103.833 3.395ZM103.848 9.62C104.558 9.62 105.103 9.44 105.483 9.08C105.873 8.72 106.068 8.21 106.068 7.55C106.068 6.88 105.873 6.36 105.483 5.99C105.103 5.62 104.573 5.435 103.893 5.435C103.183 5.435 102.628 5.64 102.228 6.05C101.838 6.46 101.643 7.035 101.643 7.775V8.945C101.943 9.155 102.283 9.32 102.663 9.44C103.053 9.56 103.448 9.62 103.848 9.62ZM115.288 14.18C114.218 14.18 113.248 13.95 112.378 13.49C111.518 13.02 110.838 12.375 110.338 11.555C109.848 10.725 109.603 9.79 109.603 8.75C109.603 7.71 109.848 6.78 110.338 5.96C110.838 5.13 111.518 4.485 112.378 4.025C113.248 3.555 114.223 3.32 115.303 3.32C116.213 3.32 117.033 3.48 117.763 3.8C118.503 4.12 119.123 4.58 119.623 5.18L118.063 6.62C117.353 5.8 116.473 5.39 115.423 5.39C114.773 5.39 114.193 5.535 113.683 5.825C113.173 6.105 112.773 6.5 112.483 7.01C112.203 7.52 112.063 8.1 112.063 8.75C112.063 9.4 112.203 9.98 112.483 10.49C112.773 11 113.173 11.4 113.683 11.69C114.193 11.97 114.773 12.11 115.423 12.11C116.473 12.11 117.353 11.695 118.063 10.865L119.623 12.305C119.123 12.915 118.503 13.38 117.763 13.7C117.023 14.02 116.198 14.18 115.288 14.18ZM125.271 9.77H123.591V14H121.176V3.5H123.591V7.745H125.331L128.091 3.5H130.656L127.221 8.57L130.761 14H128.001L125.271 9.77ZM141.23 3.5V14H138.875V12.725C138.155 13.695 137.095 14.18 135.695 14.18C134.455 14.18 133.485 13.79 132.785 13.01C132.095 12.22 131.75 11.1 131.75 9.65V3.5H134.18V9.575C134.18 10.415 134.375 11.05 134.765 11.48C135.165 11.9 135.705 12.11 136.385 12.11C137.115 12.11 137.7 11.885 138.14 11.435C138.58 10.975 138.8 10.3 138.8 9.41V3.5H141.23ZM153.11 3.5V14H150.755V12.725C150.035 13.695 148.975 14.18 147.575 14.18C146.335 14.18 145.365 13.79 144.665 13.01C143.975 12.22 143.63 11.1 143.63 9.65V3.5H146.06V9.575C146.06 10.415 146.255 11.05 146.645 11.48C147.045 11.9 147.585 12.11 148.265 12.11C148.995 12.11 149.58 11.885 150.02 11.435C150.46 10.975 150.68 10.3 150.68 9.41V3.5H153.11ZM148.445 2.825C146.525 2.825 145.555 2.06 145.535 0.529999H147.2C147.22 1.26 147.635 1.625 148.445 1.625C148.845 1.625 149.15 1.535 149.36 1.355C149.57 1.165 149.68 0.889999 149.69 0.529999H151.355C151.345 1.28 151.1 1.85 150.62 2.24C150.14 2.63 149.415 2.825 148.445 2.825ZM67.285 21.32C68.215 21.32 69.03 21.505 69.73 21.875C70.44 22.245 70.99 22.79 71.38 23.51C71.77 24.22 71.965 25.08 71.965 26.09V32H69.52V25.88C69.52 25.06 69.32 24.44 68.92 24.02C68.52 23.6 67.975 23.39 67.285 23.39C66.585 23.39 66.03 23.6 65.62 24.02C65.22 24.44 65.02 25.06 65.02 25.88V32H61.375L61.36 30.02H62.575V26.09C62.575 25.08 62.77 24.22 63.16 23.51C63.55 22.79 64.1 22.245 64.81 21.875C65.52 21.505 66.345 21.32 67.285 21.32ZM82.7342 31.1C82.2342 31.44 81.6042 31.705 80.8442 31.895C80.0942 32.085 79.2942 32.18 78.4442 32.18C77.3842 32.18 76.4842 32.05 75.7442 31.79C75.0042 31.52 74.4442 31.15 74.0642 30.68C73.6842 30.2 73.4942 29.655 73.4942 29.045C73.4942 28.485 73.6492 27.99 73.9592 27.56C74.2692 27.13 74.6942 26.81 75.2342 26.6C74.8242 26.38 74.5042 26.08 74.2742 25.7C74.0542 25.32 73.9442 24.895 73.9442 24.425C73.9442 23.855 74.1192 23.335 74.4692 22.865C74.8192 22.395 75.3492 22.02 76.0592 21.74C76.7692 21.46 77.6392 21.32 78.6692 21.32C79.3492 21.32 80.0142 21.39 80.6642 21.53C81.3142 21.66 81.8792 21.84 82.3592 22.07L81.6842 23.93C80.7642 23.5 79.7892 23.285 78.7592 23.285C77.9792 23.285 77.3892 23.405 76.9892 23.645C76.5992 23.875 76.4042 24.19 76.4042 24.59C76.4042 24.96 76.5342 25.245 76.7942 25.445C77.0642 25.635 77.4692 25.73 78.0092 25.73H80.8742V27.65H77.8592C77.2492 27.65 76.7792 27.755 76.4492 27.965C76.1192 28.175 75.9542 28.48 75.9542 28.88C75.9542 29.3 76.1642 29.63 76.5842 29.87C77.0142 30.1 77.6692 30.215 78.5492 30.215C79.1692 30.215 79.7892 30.135 80.4092 29.975C81.0292 29.805 81.5542 29.57 81.9842 29.27L82.7342 31.1ZM88.9643 32.18C87.8943 32.18 86.9243 31.95 86.0543 31.49C85.1943 31.02 84.5143 30.375 84.0143 29.555C83.5243 28.725 83.2793 27.79 83.2793 26.75C83.2793 25.71 83.5243 24.78 84.0143 23.96C84.5143 23.13 85.1943 22.485 86.0543 22.025C86.9243 21.555 87.8993 21.32 88.9793 21.32C89.8893 21.32 90.7093 21.48 91.4393 21.8C92.1793 22.12 92.7993 22.58 93.2993 23.18L91.7393 24.62C91.0293 23.8 90.1493 23.39 89.0993 23.39C88.4493 23.39 87.8693 23.535 87.3593 23.825C86.8493 24.105 86.4493 24.5 86.1593 25.01C85.8793 25.52 85.7393 26.1 85.7393 26.75C85.7393 27.4 85.8793 27.98 86.1593 28.49C86.4493 29 86.8493 29.4 87.3593 29.69C87.8693 29.97 88.4493 30.11 89.0993 30.11C90.1493 30.11 91.0293 29.695 91.7393 28.865L93.2993 30.305C92.7993 30.915 92.1793 31.38 91.4393 31.7C90.6993 32.02 89.8743 32.18 88.9643 32.18ZM99.6734 32.18C98.5834 32.18 97.5984 31.945 96.7184 31.475C95.8484 31.005 95.1634 30.36 94.6634 29.54C94.1734 28.71 93.9284 27.78 93.9284 26.75C93.9284 25.72 94.1734 24.795 94.6634 23.975C95.1634 23.145 95.8484 22.495 96.7184 22.025C97.5984 21.555 98.5834 21.32 99.6734 21.32C100.763 21.32 101.743 21.555 102.613 22.025C103.483 22.495 104.168 23.145 104.668 23.975C105.168 24.795 105.418 25.72 105.418 26.75C105.418 27.78 105.168 28.71 104.668 29.54C104.168 30.36 103.483 31.005 102.613 31.475C101.743 31.945 100.763 32.18 99.6734 32.18ZM99.6734 30.11C100.293 30.11 100.853 29.97 101.353 29.69C101.853 29.4 102.243 29 102.523 28.49C102.813 27.98 102.958 27.4 102.958 26.75C102.958 26.1 102.813 25.52 102.523 25.01C102.243 24.5 101.853 24.105 101.353 23.825C100.853 23.535 100.293 23.39 99.6734 23.39C99.0534 23.39 98.4934 23.535 97.9934 23.825C97.4934 24.105 97.0984 24.5 96.8084 25.01C96.5284 25.52 96.3884 26.1 96.3884 26.75C96.3884 27.4 96.5284 27.98 96.8084 28.49C97.0984 29 97.4934 29.4 97.9934 29.69C98.4934 29.97 99.0534 30.11 99.6734 30.11ZM116.86 21.5V32H114.445V23.48H109.705V32H107.29V21.5H116.86ZM123.828 21.395C125.298 21.395 126.443 21.755 127.263 22.475C128.093 23.195 128.508 24.205 128.508 25.505C128.508 26.735 128.133 27.7 127.383 28.4C126.643 29.1 125.603 29.45 124.263 29.45C123.823 29.45 123.393 29.405 122.973 29.315C122.563 29.225 122.118 29.075 121.638 28.865V32H119.238V25.79C119.238 24.38 119.628 23.295 120.408 22.535C121.198 21.775 122.338 21.395 123.828 21.395ZM123.843 27.62C124.553 27.62 125.098 27.44 125.478 27.08C125.868 26.72 126.063 26.21 126.063 25.55C126.063 24.88 125.868 24.36 125.478 23.99C125.098 23.62 124.568 23.435 123.888 23.435C123.178 23.435 122.623 23.64 122.223 24.05C121.833 24.46 121.638 25.035 121.638 25.775V26.945C121.938 27.155 122.278 27.32 122.658 27.44C123.048 27.56 123.443 27.62 123.843 27.62ZM135.328 32.18C134.238 32.18 133.253 31.945 132.373 31.475C131.503 31.005 130.818 30.36 130.318 29.54C129.828 28.71 129.583 27.78 129.583 26.75C129.583 25.72 129.828 24.795 130.318 23.975C130.818 23.145 131.503 22.495 132.373 22.025C133.253 21.555 134.238 21.32 135.328 21.32C136.418 21.32 137.398 21.555 138.268 22.025C139.138 22.495 139.823 23.145 140.323 23.975C140.823 24.795 141.073 25.72 141.073 26.75C141.073 27.78 140.823 28.71 140.323 29.54C139.823 30.36 139.138 31.005 138.268 31.475C137.398 31.945 136.418 32.18 135.328 32.18ZM135.328 30.11C135.948 30.11 136.508 29.97 137.008 29.69C137.508 29.4 137.898 29 138.178 28.49C138.468 27.98 138.613 27.4 138.613 26.75C138.613 26.1 138.468 25.52 138.178 25.01C137.898 24.5 137.508 24.105 137.008 23.825C136.508 23.535 135.948 23.39 135.328 23.39C134.708 23.39 134.148 23.535 133.648 23.825C133.148 24.105 132.753 24.5 132.463 25.01C132.183 25.52 132.043 26.1 132.043 26.75C132.043 27.4 132.183 27.98 132.463 28.49C132.753 29 133.148 29.4 133.648 29.69C134.148 29.97 134.708 30.11 135.328 30.11ZM152.5 32L152.485 25.715L149.395 30.89H148.315L145.225 25.835V32H142.945V21.5H144.955L148.885 28.025L152.755 21.5H154.765L154.78 32H152.5ZM162.383 24.665C163.643 24.665 164.638 24.99 165.368 25.64C166.108 26.29 166.478 27.2 166.478 28.37C166.478 29.59 166.068 30.535 165.248 31.205C164.428 31.875 163.263 32.21 161.753 32.21C160.263 32.21 159.133 31.875 158.363 31.205C157.593 30.535 157.208 29.55 157.208 28.25V21.5H159.608V25.28C160.558 24.87 161.483 24.665 162.383 24.665ZM170.198 21.5V32H167.798V21.5H170.198ZM161.858 30.32C162.548 30.32 163.083 30.155 163.463 29.825C163.843 29.495 164.033 29.035 164.033 28.445C164.033 27.835 163.828 27.365 163.418 27.035C163.018 26.695 162.483 26.525 161.813 26.525C161.443 26.525 161.063 26.585 160.673 26.705C160.283 26.815 159.928 26.975 159.608 27.185V28.19C159.608 28.87 159.803 29.395 160.193 29.765C160.583 30.135 161.138 30.32 161.858 30.32ZM186.673 21.5V32H172.813V21.5H175.228V30.02H178.543V21.5H180.958V30.02H184.258V21.5H186.673ZM194.258 21.32C195.188 21.32 196.003 21.505 196.703 21.875C197.413 22.245 197.963 22.79 198.353 23.51C198.743 24.22 198.938 25.08 198.938 26.09V32H196.493V25.88C196.493 25.06 196.293 24.44 195.893 24.02C195.493 23.6 194.948 23.39 194.258 23.39C193.558 23.39 193.003 23.6 192.593 24.02C192.193 24.44 191.993 25.06 191.993 25.88V32H188.348L188.333 30.02H189.548V26.09C189.548 25.08 189.743 24.22 190.133 23.51C190.523 22.79 191.073 22.245 191.783 21.875C192.493 21.505 193.318 21.32 194.258 21.32ZM209.707 31.1C209.207 31.44 208.577 31.705 207.817 31.895C207.067 32.085 206.267 32.18 205.417 32.18C204.357 32.18 203.457 32.05 202.717 31.79C201.977 31.52 201.417 31.15 201.037 30.68C200.657 30.2 200.467 29.655 200.467 29.045C200.467 28.485 200.622 27.99 200.932 27.56C201.242 27.13 201.667 26.81 202.207 26.6C201.797 26.38 201.477 26.08 201.247 25.7C201.027 25.32 200.917 24.895 200.917 24.425C200.917 23.855 201.092 23.335 201.442 22.865C201.792 22.395 202.322 22.02 203.032 21.74C203.742 21.46 204.612 21.32 205.642 21.32C206.322 21.32 206.987 21.39 207.637 21.53C208.287 21.66 208.852 21.84 209.332 22.07L208.657 23.93C207.737 23.5 206.762 23.285 205.732 23.285C204.952 23.285 204.362 23.405 203.962 23.645C203.572 23.875 203.377 24.19 203.377 24.59C203.377 24.96 203.507 25.245 203.767 25.445C204.037 25.635 204.442 25.73 204.982 25.73H207.847V27.65H204.832C204.222 27.65 203.752 27.755 203.422 27.965C203.092 28.175 202.927 28.48 202.927 28.88C202.927 29.3 203.137 29.63 203.557 29.87C203.987 30.1 204.642 30.215 205.522 30.215C206.142 30.215 206.762 30.135 207.382 29.975C208.002 29.805 208.527 29.57 208.957 29.27L209.707 31.1ZM220.822 21.5V32H218.392V27.695H213.622V32H211.192V21.5H213.622V25.64H218.392V21.5H220.822ZM233.082 21.5V32H230.652V27.695H225.882V32H223.452V21.5H225.882V25.64H230.652V21.5H233.082ZM240.708 24.665C241.968 24.665 242.963 24.99 243.693 25.64C244.433 26.29 244.803 27.2 244.803 28.37C244.803 29.59 244.393 30.535 243.573 31.205C242.753 31.875 241.588 32.21 240.078 32.21C238.588 32.21 237.458 31.875 236.688 31.205C235.918 30.535 235.533 29.55 235.533 28.25V21.5H237.933V25.28C238.883 24.87 239.808 24.665 240.708 24.665ZM248.523 21.5V32H246.123V21.5H248.523ZM240.183 30.32C240.873 30.32 241.408 30.155 241.788 29.825C242.168 29.495 242.358 29.035 242.358 28.445C242.358 27.835 242.153 27.365 241.743 27.035C241.343 26.695 240.808 26.525 240.138 26.525C239.768 26.525 239.388 26.585 238.998 26.705C238.608 26.815 238.253 26.975 237.933 27.185V28.19C237.933 28.87 238.128 29.395 238.518 29.765C238.908 30.135 239.463 30.32 240.183 30.32ZM260.468 21.5V32H258.113V30.725C257.393 31.695 256.333 32.18 254.933 32.18C253.693 32.18 252.723 31.79 252.023 31.01C251.333 30.22 250.988 29.1 250.988 27.65V21.5H253.418V27.575C253.418 28.415 253.613 29.05 254.003 29.48C254.403 29.9 254.943 30.11 255.623 30.11C256.353 30.11 256.938 29.885 257.378 29.435C257.818 28.975 258.038 28.3 258.038 27.41V21.5H260.468ZM255.803 20.825C253.883 20.825 252.913 20.06 252.893 18.53H254.558C254.578 19.26 254.993 19.625 255.803 19.625C256.203 19.625 256.508 19.535 256.718 19.355C256.928 19.165 257.038 18.89 257.048 18.53H258.713C258.703 19.28 258.458 19.85 257.978 20.24C257.498 20.63 256.773 20.825 255.803 20.825ZM269.156 21.5L271.331 24.68L273.506 21.5H276.356L272.861 26.525L276.641 32H273.776L271.331 28.52L268.916 32H266.111L269.861 26.63L266.351 21.5H269.156ZM282.72 32.18C281.63 32.18 280.645 31.945 279.765 31.475C278.895 31.005 278.21 30.36 277.71 29.54C277.22 28.71 276.975 27.78 276.975 26.75C276.975 25.72 277.22 24.795 277.71 23.975C278.21 23.145 278.895 22.495 279.765 22.025C280.645 21.555 281.63 21.32 282.72 21.32C283.81 21.32 284.79 21.555 285.66 22.025C286.53 22.495 287.215 23.145 287.715 23.975C288.215 24.795 288.465 25.72 288.465 26.75C288.465 27.78 288.215 28.71 287.715 29.54C287.215 30.36 286.53 31.005 285.66 31.475C284.79 31.945 283.81 32.18 282.72 32.18ZM282.72 30.11C283.34 30.11 283.9 29.97 284.4 29.69C284.9 29.4 285.29 29 285.57 28.49C285.86 27.98 286.005 27.4 286.005 26.75C286.005 26.1 285.86 25.52 285.57 25.01C285.29 24.5 284.9 24.105 284.4 23.825C283.9 23.535 283.34 23.39 282.72 23.39C282.1 23.39 281.54 23.535 281.04 23.825C280.54 24.105 280.145 24.5 279.855 25.01C279.575 25.52 279.435 26.1 279.435 26.75C279.435 27.4 279.575 27.98 279.855 28.49C280.145 29 280.54 29.4 281.04 29.69C281.54 29.97 282.1 30.11 282.72 30.11ZM295.317 21.32C296.247 21.32 297.062 21.505 297.762 21.875C298.472 22.245 299.022 22.79 299.412 23.51C299.802 24.22 299.997 25.08 299.997 26.09V32H297.552V25.88C297.552 25.06 297.352 24.44 296.952 24.02C296.552 23.6 296.007 23.39 295.317 23.39C294.617 23.39 294.062 23.6 293.652 24.02C293.252 24.44 293.052 25.06 293.052 25.88V32H289.407L289.392 30.02H290.607V26.09C290.607 25.08 290.802 24.22 291.192 23.51C291.582 22.79 292.132 22.245 292.842 21.875C293.552 21.505 294.377 21.32 295.317 21.32ZM313.569 30.02V34.175H311.319V32H303.639V34.175H301.389L301.404 30.02H302.664V26.09C302.664 25.08 302.864 24.22 303.264 23.51C303.664 22.79 304.224 22.245 304.944 21.875C305.674 21.505 306.519 21.32 307.479 21.32C308.439 21.32 309.279 21.505 309.999 21.875C310.729 22.245 311.294 22.79 311.694 23.51C312.094 24.22 312.294 25.08 312.294 26.09V30.02H313.569ZM309.849 30.02V25.88C309.849 25.06 309.639 24.44 309.219 24.02C308.809 23.6 308.229 23.39 307.479 23.39C306.739 23.39 306.154 23.6 305.724 24.02C305.304 24.44 305.094 25.06 305.094 25.88V30.02H309.849ZM324.555 21.5V32H322.2V30.725C321.48 31.695 320.42 32.18 319.02 32.18C317.78 32.18 316.81 31.79 316.11 31.01C315.42 30.22 315.075 29.1 315.075 27.65V21.5H317.505V27.575C317.505 28.415 317.7 29.05 318.09 29.48C318.49 29.9 319.03 30.11 319.71 30.11C320.44 30.11 321.025 29.885 321.465 29.435C321.905 28.975 322.125 28.3 322.125 27.41V21.5H324.555ZM336.735 21.5V32H334.305V27.695H329.535V32H327.105V21.5H329.535V25.64H334.305V21.5H336.735ZM346.761 23.48H341.766L341.781 32H339.366V21.5H346.776L346.761 23.48Z" fill="#1F623C"/>
</svg>
