<svg width="32" height="32" viewBox="0 0 32 32" fill="none" xmlns="http://www.w3.org/2000/svg">
<path d="M16 25.5092L7.78381 20.7568L16 16L23.7838 20.7568L16 25.5092Z" fill="#FFBC00"/>
<path d="M7.78381 11.2435L16 6.48242L23.7838 11.2435H7.78381Z" fill="#1F623C"/>
<path d="M7.78381 15.9999H16V11.2432L7.78381 15.9999Z" fill="#FFBC00"/>
<path d="M16 15.9999H23.7838L16 11.2432V15.9999Z" fill="#1F623C"/>
<path d="M26.3784 16C26.3784 18.7525 25.2849 21.3923 23.3386 23.3386C21.3923 25.2849 18.7525 26.3784 16 26.3784V32C20.2435 32 24.3131 30.3143 27.3137 27.3137C30.3143 24.3131 32 20.2435 32 16H26.3784Z" fill="#FFBC00"/>
<path d="M16 0C11.7565 0 7.68687 1.68571 4.68629 4.68629C1.68571 7.68687 0 11.7565 0 16H5.62162C5.62162 13.2475 6.71506 10.6077 8.66138 8.66138C10.6077 6.71506 13.2475 5.62162 16 5.62162V0Z" fill="#1F623C"/>
</svg>
